<svg width="14.000000" height="20.000000" viewBox="0 0 14 20" fill="none" xmlns="http://www.w3.org/2000/svg" xmlns:xlink="http://www.w3.org/1999/xlink">
	<desc>
			Created with Pixso.
	</desc>
	<defs/>
	<path id="Vector" d="M7 0C3.12988 0 0 3.12988 0 7C0 12.25 7 20 7 20C7 20 14 12.25 14 7C14 3.12988 10.8701 0 7 0ZM7 9.5C5.62012 9.5 4.5 8.37988 4.5 7C4.5 5.62012 5.62012 4.5 7 4.5C8.37988 4.5 9.5 5.62012 9.5 7C9.5 8.37988 8.37988 9.5 7 9.5Z" fill="#C2D1D9" fill-opacity="1.000000" fill-rule="evenodd"/>
	<path id="Vector" d="M7 0C3.12988 0 0 3.12988 0 7C0 12.25 7 20 7 20C7 20 14 12.25 14 7C14 3.12988 10.8701 0 7 0ZM7 9.5C5.62012 9.5 4.5 8.37988 4.5 7C4.5 5.62012 5.62012 4.5 7 4.5C8.37988 4.5 9.5 5.62012 9.5 7C9.5 8.37988 8.37988 9.5 7 9.5Z" fill="#C2D1D9" fill-opacity="1.000000" fill-rule="evenodd"/>
	<path id="Vector" d="M0 7C0 3.12988 3.12988 0 7 0C10.8701 0 14 3.12988 14 7C14 12.25 7 20 7 20C7 20 0 12.25 0 7ZM4.5 7C4.5 8.37988 5.62012 9.5 7 9.5C8.37988 9.5 9.5 8.37988 9.5 7C9.5 5.62012 8.37988 4.5 7 4.5C5.62012 4.5 4.5 5.62012 4.5 7Z" fill="#141312" fill-opacity="1.000000" fill-rule="evenodd"/>
</svg>
