<svg width="19.250000" height="15.750000" viewBox="0 0 19.25 15.75" fill="none" xmlns="http://www.w3.org/2000/svg" xmlns:xlink="http://www.w3.org/1999/xlink">
	<desc>
			Created with Pixso.
	</desc>
	<defs/>
	<path id="Vector" d="M0.00878906 2.625C0.00878906 1.17871 1.17969 0 2.625 0L16.625 0C18.0708 0 19.25 1.1792 19.25 2.625L19.25 13.125C19.25 14.5708 18.0708 15.75 16.625 15.75L2.625 15.75C1.1792 15.75 0 14.5708 0 13.1245L0.00878906 2.625ZM3.62549 4.04932C3.37646 4.46289 3.50977 5.00098 3.92334 5.25L9.62842 8.6875L9.63379 8.67822L15.4863 5.12646C15.8989 4.87549 16.0312 4.33838 15.7822 3.9248C15.5322 3.51025 14.9937 3.37646 14.5791 3.62646L9.59912 6.62695L4.82666 3.75098C4.4126 3.50195 3.875 3.63525 3.62549 4.04932Z" fill="#141312" fill-opacity="1.000000" fill-rule="evenodd"/>
</svg>
