<svg width="18.000000" height="18.000000" viewBox="0 0 18 18" fill="none" xmlns="http://www.w3.org/2000/svg" xmlns:xlink="http://www.w3.org/1999/xlink">
	<desc>
			Created with Pixso.
	</desc>
	<defs/>
	<path id="Vector" d="M9 0C13.9707 0 18 4.02979 18 9C18 13.9702 13.9707 18 9 18C4.0293 18 0 13.9702 0 9C0 4.02979 4.0293 0 9 0ZM9 3.6001C8.66846 3.6001 8.3999 3.86865 8.3999 4.19971L8.3999 8.75635L5.60645 11.5498C5.37207 11.7842 5.37207 12.1592 5.60645 12.3936C5.84082 12.6279 6.21582 12.6279 6.4502 12.3936L9.3374 9.49658C9.47998 9.36035 9.57568 9.23193 9.6001 9L9.6001 4.19971C9.6001 3.86816 9.33105 3.6001 9 3.6001L9 3.6001Z" fill="#141312" fill-opacity="1.000000" fill-rule="nonzero"/>
</svg>
