<svg width="18.000000" height="18.000000" viewBox="0 0 18 18" fill="none" xmlns="http://www.w3.org/2000/svg" xmlns:xlink="http://www.w3.org/1999/xlink">
	<desc>
			Created with Pixso.
	</desc>
	<defs/>
	<rect id="Телефон 2" width="18.000000" height="18.000000" fill="#FFFFFF" fill-opacity="0"/>
	<path id="Vector" d="M3.62012 7.79004C5.06006 10.6201 7.37988 12.9302 10.21 14.3799L12.4102 12.1802C12.6802 11.9102 13.0801 11.8198 13.4302 11.9399C14.5498 12.3101 15.7598 12.5098 17 12.5098C17.5498 12.5098 18 12.96 18 13.5098L18 17C18 17.5498 17.5498 18 17 18C7.60986 18 0 10.3901 0 1C0 0.450195 0.450195 0 1 0L4.5 0C5.0498 0 5.5 0.450195 5.5 1C5.5 2.25 5.7002 3.4502 6.06982 4.56982C6.18018 4.91992 6.1001 5.31006 5.81982 5.58984L3.62012 7.79004Z" fill="#C2D1D9" fill-opacity="1.000000" fill-rule="evenodd"/>
	<path id="Vector" d="M3.62012 7.79004C5.06006 10.6201 7.37988 12.9302 10.21 14.3799L12.4102 12.1802C12.6802 11.9102 13.0801 11.8198 13.4302 11.9399C14.5498 12.3101 15.7598 12.5098 17 12.5098C17.5498 12.5098 18 12.96 18 13.5098L18 17C18 17.5498 17.5498 18 17 18C7.60986 18 0 10.3901 0 1C0 0.450195 0.450195 0 1 0L4.5 0C5.0498 0 5.5 0.450195 5.5 1C5.5 2.25 5.7002 3.4502 6.06982 4.56982C6.18018 4.91992 6.1001 5.31006 5.81982 5.58984L3.62012 7.79004Z" fill="#C2D1D9" fill-opacity="1.000000" fill-rule="evenodd"/>
	<path id="Vector" d="M3.62012 7.79004C5.06006 10.6201 7.37988 12.9302 10.21 14.3799L12.4102 12.1802C12.6802 11.9102 13.0801 11.8198 13.4302 11.9399C14.5498 12.3101 15.7598 12.5098 17 12.5098C17.5498 12.5098 18 12.96 18 13.5098L18 17C18 17.5498 17.5498 18 17 18C7.60986 18 0 10.3901 0 1C0 0.450195 0.450195 0 1 0L4.5 0C5.0498 0 5.5 0.450195 5.5 1C5.5 2.25 5.7002 3.4502 6.06982 4.56982C6.18018 4.91992 6.1001 5.31006 5.81982 5.58984L3.62012 7.79004Z" fill="#141312" fill-opacity="1.000000" fill-rule="evenodd"/>
</svg>
