<svg width="20" height="20" viewBox="0 0 20 20" fill="none" xmlns="http://www.w3.org/2000/svg">
<path d="M9.99902 20C4.47618 20 -0.000976562 15.5228 -0.000976562 10C-0.000976562 4.47715 4.47618 0 9.99902 0C15.5219 0 19.999 4.47715 19.999 10C19.993 15.5203 15.5194 19.9939 9.99902 20ZM9.99902 2.22222C5.58075 2.22222 2.22125 5.58172 2.22125 10C2.22125 14.4183 5.58075 17.7778 9.99902 17.7778C14.4173 17.7778 17.7768 14.4183 17.7768 10C17.7718 5.58378 14.4152 2.22718 9.99902 2.22222ZM15.5546 11.1111H8.88791V5.55556H11.1101V8.88889H15.5546V11.1111Z" fill="#1C1C1C"/>
</svg>
