<svg width="40" height="40" viewBox="0 0 40 40" fill="none" xmlns="http://www.w3.org/2000/svg">
<path fill-rule="evenodd" clip-rule="evenodd" d="M0.999023 20C0.999023 30.4934 9.50561 39 19.999 39C30.4924 39 38.999 30.4934 38.999 20C38.999 9.50659 30.4924 1 19.999 1C9.50561 1 0.999023 9.50659 0.999023 20ZM19.999 0C8.95333 0 -0.000976562 8.95431 -0.000976562 20C-0.000976562 31.0457 8.95333 40 19.999 40C31.0447 40 39.999 31.0457 39.999 20C39.999 8.95431 31.0447 0 19.999 0Z" fill="#1C1C1C"/>
<path fill-rule="evenodd" clip-rule="evenodd" d="M26.6892 21.487H25.0007L28.4525 26.9112H21.5759V29.7H17.4221V26.9114H10.5455L13.9973 21.4872H12.3089L15.7606 16.063H14.087L19.499 7.55877L24.911 16.0628H23.2374L26.6892 21.487ZM23.0621 15.0295L19.499 9.43051L15.9359 15.0295H17.6095L14.1577 20.4536H15.8461L12.3943 25.8777H18.4152V28.6665H20.5827V25.8777H26.6036L23.1518 20.4536H24.8403L21.3885 15.0295H23.0621Z" fill="#1C1C1C"/>
</svg>
