<svg width="20" height="20" viewBox="0 0 20 20" fill="none" xmlns="http://www.w3.org/2000/svg">
<path d="M15.363 20H15.3335C11.2909 19.9005 7.43308 18.2863 4.5242 15.4772C1.71402 12.5709 0.0989088 8.71455 -0.000859993 4.67309C-0.00681318 4.10694 0.215473 3.56223 0.615916 3.16197L3.47189 0.308102C3.88282 -0.102701 4.54893 -0.102701 4.95986 0.308102L9.1691 4.51735C9.5799 4.92827 9.5799 5.59439 9.1691 6.00531L7.48961 7.68165C7.80111 8.84542 8.37489 9.92243 9.167 10.8302C10.0731 11.6225 11.1487 12.1967 12.3113 12.5086L13.995 10.8312C14.4059 10.4204 15.072 10.4204 15.483 10.8312L19.6922 15.0405C20.103 15.4514 20.103 16.1175 19.6922 16.5284L16.8362 19.3833C16.4468 19.7768 15.9166 19.9988 15.363 20ZM4.21377 2.54111H4.20851L2.10388 4.64994C2.18969 8.1422 3.58377 11.4749 6.01006 13.9881C8.52343 16.4136 11.8555 17.8075 15.3472 17.8943L17.4592 15.7844L14.7316 13.0642L13.371 14.4238C13.1763 14.6206 12.9112 14.7316 12.6344 14.7321C12.5604 14.7322 12.4867 14.7244 12.4144 14.709C10.6609 14.3211 9.03271 13.4994 7.67903 12.3192C6.49881 10.9655 5.67712 9.33732 5.28923 7.58378C5.21605 7.23522 5.32416 6.8733 5.57651 6.62197L6.9361 5.26133L4.21377 2.54111Z" fill="#1C1C1C"/>
</svg>
