<svg width="17" height="18" viewBox="0 0 17 18" fill="none" xmlns="http://www.w3.org/2000/svg">
<path d="M10.6767 11.4127H6.28545C2.9731 11.4127 0.266425 13.9181 0.00143659 17.0917C-0.0174912 17.3144 0.152859 17.5 0.379992 17.5C0.569269 17.5 0.739619 17.3515 0.758547 17.1659C0.98568 14.345 3.37058 12.155 6.28545 12.155H10.6956C13.6105 12.155 15.9954 14.3635 16.2415 17.1474C16.2604 17.333 16.4118 17.4814 16.62 17.4814C16.8471 17.4814 17.0175 17.2959 16.9986 17.0731C16.7146 13.8996 13.989 11.4127 10.6767 11.4127ZM8.48107 9.16703C10.9228 9.16703 12.8912 7.21834 12.8912 4.84279C12.8912 2.46725 10.9228 0.5 8.48107 0.5C6.03939 0.5 4.07091 2.44869 4.07091 4.84279C4.07091 7.2369 6.03939 9.16703 8.48107 9.16703ZM8.48107 1.24236C10.5063 1.24236 12.1341 2.85699 12.1341 4.82424C12.1341 6.81004 10.4874 8.40611 8.48107 8.40611C6.47473 8.40611 4.82802 6.81004 4.82802 4.84279C4.82802 2.85699 6.4558 1.24236 8.48107 1.24236Z" fill="#1C1C1C"/>
</svg>
